<?xml version="1.0" encoding="UTF-8" ?>
<!DOCTYPE svg PUBLIC "-//W3C//DTD SVG 1.1//EN" "http://www.w3.org/Graphics/SVG/1.1/DTD/svg11.dtd">
<svg width="697pt" height="271pt" viewBox="0 0 697 271" version="1.1" xmlns="http://www.w3.org/2000/svg">
<g id="#545454ff">
<path fill="#545454" opacity="1.00" d=" M 0.00 0.00 L 697.00 0.00 L 697.00 271.00 L 0.00 271.00 L 0.00 0.00 M 140.58 103.42 C 142.66 105.38 143.55 108.08 144.13 110.80 C 144.68 109.85 145.96 109.03 145.55 107.75 C 145.21 103.99 140.40 102.49 140.44 98.62 C 140.66 96.17 141.62 93.86 142.16 91.48 C 137.82 93.44 137.12 100.28 140.58 103.42 M 145.70 97.02 C 144.89 102.15 149.78 105.44 152.05 109.47 C 154.13 107.18 151.03 104.31 149.56 102.46 C 146.21 99.53 148.82 95.04 149.10 91.41 C 146.85 92.40 145.89 94.70 145.70 97.02 M 154.22 103.77 C 156.31 105.82 156.97 108.63 157.43 111.42 C 158.55 110.63 159.14 109.40 158.89 108.01 C 158.85 104.29 154.41 102.59 153.91 99.07 C 154.16 96.48 154.85 93.97 155.28 91.41 C 151.07 93.86 150.88 100.48 154.22 103.77 M 281.96 102.83 C 273.35 104.49 264.65 105.66 256.05 107.34 C 253.37 107.77 251.11 110.17 251.18 112.94 C 250.95 121.38 251.16 129.82 251.11 138.26 C 245.14 137.19 238.47 140.82 237.54 147.11 C 236.04 153.54 241.61 159.75 247.99 159.86 C 252.99 159.87 258.03 156.17 258.79 151.09 C 259.76 141.61 258.33 131.96 259.48 122.52 C 264.50 120.50 270.13 120.81 275.36 119.52 C 278.04 119.34 281.06 117.72 283.55 119.28 C 284.32 123.76 283.75 128.34 283.92 132.86 C 279.93 133.01 275.24 133.11 272.55 136.59 C 268.01 141.75 269.67 151.15 276.42 153.53 C 283.05 156.92 291.60 151.40 291.57 144.06 C 291.80 133.05 291.57 122.02 291.68 111.00 C 291.77 108.17 291.36 104.77 288.63 103.22 C 286.68 101.75 284.15 102.54 281.96 102.83 M 368.01 109.23 C 367.56 120.05 367.93 130.90 367.87 141.73 C 368.26 141.30 369.03 140.43 369.42 140.00 C 386.59 140.00 403.77 140.00 420.95 140.00 L 421.04 141.90 C 422.79 140.01 422.29 137.36 422.38 135.03 C 422.13 126.41 422.72 117.78 422.44 109.15 C 404.30 109.25 386.15 109.10 368.01 109.23 M 145.45 110.20 C 144.96 111.85 141.48 115.09 142.56 110.54 C 140.43 112.29 137.27 113.86 137.17 117.02 C 137.74 119.49 139.43 121.51 140.12 123.94 C 140.73 126.77 140.08 129.65 139.33 132.38 C 136.05 130.90 133.85 128.09 131.53 125.47 C 127.24 123.28 122.38 125.62 118.30 127.27 C 115.60 128.75 111.61 131.06 112.32 134.67 C 114.31 136.82 117.59 136.91 120.18 138.03 C 119.47 137.94 118.05 137.78 117.34 137.70 C 120.35 141.37 124.87 143.28 129.13 145.10 C 129.22 148.06 129.17 151.40 131.53 153.59 C 137.05 159.13 145.47 160.53 152.99 160.08 C 159.44 159.31 167.12 157.43 170.16 150.99 C 172.70 145.51 167.97 138.90 162.35 138.16 C 160.84 133.79 159.65 129.28 159.54 124.63 L 159.61 124.36 C 160.95 122.07 162.45 119.73 162.84 117.05 C 163.02 114.37 160.51 112.79 158.84 111.15 C 158.04 111.90 157.25 112.66 156.47 113.42 C 157.07 110.76 155.19 109.91 153.00 109.45 C 152.10 110.89 151.20 112.32 150.23 113.71 C 150.30 112.62 150.43 110.44 150.50 109.35 C 148.81 109.62 147.13 109.89 145.45 110.20 M 543.21 112.85 C 538.27 128.87 533.75 145.02 529.25 161.17 C 530.69 161.49 532.14 161.80 533.60 162.12 C 538.17 146.05 543.03 130.07 547.49 113.96 C 546.06 113.58 544.63 113.20 543.21 112.85 M 201.46 121.31 C 201.03 124.28 201.24 127.30 201.21 130.30 C 198.28 130.38 195.29 129.99 192.40 130.58 C 190.22 131.92 190.71 135.49 191.70 137.40 C 194.65 138.58 198.07 137.80 201.21 138.00 C 201.25 141.12 201.02 144.28 201.56 147.37 C 203.65 148.45 206.10 147.91 208.36 148.09 C 208.84 144.75 208.88 141.37 208.85 138.00 C 211.96 137.99 215.07 137.99 218.19 138.04 C 218.93 135.75 219.83 132.86 218.20 130.75 C 215.16 129.80 211.92 130.41 208.80 130.51 C 208.73 127.24 209.15 123.90 208.38 120.69 C 206.19 120.20 203.17 119.45 201.46 121.31 M 320.15 121.05 C 319.63 124.12 319.84 127.25 319.78 130.36 C 316.47 130.25 313.14 130.19 309.86 130.68 C 309.92 132.93 309.05 135.53 310.31 137.56 C 313.43 138.31 316.68 137.94 319.86 138.02 C 319.88 141.00 319.66 144.00 320.08 146.96 C 321.72 148.98 324.91 147.67 327.18 147.94 C 327.46 144.65 327.47 141.35 327.40 138.05 C 330.56 137.98 333.74 138.21 336.88 137.72 C 338.18 135.69 337.84 132.98 337.11 130.80 C 333.98 129.81 330.65 130.39 327.44 130.53 C 327.43 127.34 327.63 124.12 327.16 120.96 C 325.09 119.85 322.15 119.75 320.15 121.05 M 505.20 137.71 C 511.27 143.70 517.21 149.82 523.39 155.70 C 524.48 154.55 525.58 153.39 526.65 152.20 C 521.81 147.17 516.77 142.34 511.87 137.38 C 516.85 132.52 521.76 127.59 526.71 122.69 C 525.59 121.53 524.46 120.39 523.31 119.27 C 517.39 125.54 511.13 131.46 505.20 137.71 M 550.26 122.71 C 554.66 128.03 560.06 132.45 564.65 137.62 C 559.87 142.63 554.74 147.29 549.95 152.28 C 550.94 153.40 551.90 154.57 553.14 155.45 C 558.38 151.70 562.45 146.54 567.12 142.12 C 568.46 140.55 570.47 139.32 571.12 137.31 C 565.18 131.26 559.45 124.96 553.11 119.31 C 552.14 120.41 550.87 121.34 550.26 122.71 M 451.17 126.18 C 451.15 128.85 449.14 133.94 453.15 134.46 C 462.50 134.40 471.90 134.86 481.24 134.17 C 481.25 131.64 482.13 128.75 480.75 126.46 C 478.25 125.74 475.61 126.04 473.05 125.98 C 465.76 126.11 458.46 125.80 451.17 126.18 M 451.48 137.50 C 450.25 139.83 449.77 145.78 453.93 145.20 C 462.92 145.09 472.00 145.72 480.95 144.87 C 481.56 142.32 482.90 137.04 478.96 136.79 C 471.33 136.24 463.67 136.51 456.04 136.65 C 454.55 136.90 452.68 136.42 451.48 137.50 M 368.01 141.91 C 364.53 147.66 360.90 153.33 357.39 159.07 L 356.52 159.09 C 358.07 160.45 359.94 161.38 362.06 161.23 C 383.39 161.31 404.72 161.18 426.05 161.29 C 428.62 161.23 431.72 161.54 433.39 159.13 C 429.30 153.66 426.01 147.65 422.40 141.87 C 404.27 142.11 386.14 142.04 368.01 141.91 Z" />
</g>
<g id="#313131ff">
<path fill="#313131" opacity="1.00" d=" M 140.58 103.42 C 137.12 100.28 137.82 93.44 142.16 91.48 C 141.62 93.86 140.66 96.17 140.44 98.62 C 140.40 102.49 145.21 103.99 145.55 107.75 C 145.96 109.03 144.68 109.85 144.13 110.80 C 143.55 108.08 142.66 105.38 140.58 103.42 Z" />
<path fill="#313131" opacity="1.00" d=" M 154.22 103.77 C 150.88 100.48 151.07 93.86 155.28 91.41 C 154.85 93.97 154.16 96.48 153.91 99.07 C 154.41 102.59 158.85 104.29 158.89 108.01 C 159.14 109.40 158.55 110.63 157.43 111.42 C 156.97 108.63 156.31 105.82 154.22 103.77 Z" />
<path fill="#313131" opacity="1.00" d=" M 368.36 144.95 C 368.78 143.39 369.67 143.12 371.03 144.13 C 370.29 145.06 369.40 145.33 368.36 144.95 Z" />
</g>
<g id="#303030ff">
<path fill="#303030" opacity="1.00" d=" M 145.70 97.02 C 145.89 94.70 146.85 92.40 149.10 91.41 C 148.82 95.04 146.21 99.53 149.56 102.46 C 151.03 104.31 154.13 107.18 152.05 109.47 C 149.78 105.44 144.89 102.15 145.70 97.02 Z" />
</g>
<g id="#fe6988ff">
<path fill="#fe6988" opacity="1.00" d=" M 281.96 102.83 C 284.15 102.54 286.68 101.75 288.63 103.22 C 291.36 104.77 291.77 108.17 291.68 111.00 C 291.57 122.02 291.80 133.05 291.57 144.06 C 291.60 151.40 283.05 156.92 276.42 153.53 C 269.67 151.15 268.01 141.75 272.55 136.59 C 275.24 133.11 279.93 133.01 283.92 132.86 C 283.75 128.34 284.32 123.76 283.55 119.28 C 281.06 117.72 278.04 119.34 275.36 119.52 C 270.13 120.81 264.50 120.50 259.48 122.52 C 258.33 131.96 259.76 141.61 258.79 151.09 C 258.03 156.17 252.99 159.87 247.99 159.86 C 241.61 159.75 236.04 153.54 237.54 147.11 C 238.47 140.82 245.14 137.19 251.11 138.26 C 251.16 129.82 250.95 121.38 251.18 112.94 C 251.11 110.17 253.37 107.77 256.05 107.34 C 264.65 105.66 273.35 104.49 281.96 102.83 Z" />
</g>
<g id="#070707ff">
<path fill="#070707" opacity="1.00" d=" M 368.01 109.23 C 386.15 109.10 404.30 109.25 422.44 109.15 C 422.72 117.78 422.13 126.41 422.38 135.03 C 422.29 137.36 422.79 140.01 421.04 141.90 L 420.95 140.00 C 420.81 130.33 420.93 120.67 420.91 111.00 C 403.76 111.00 386.61 110.99 369.46 111.01 C 369.43 120.67 369.55 130.34 369.42 140.00 C 369.03 140.43 368.26 141.30 367.87 141.73 C 367.93 130.90 367.56 120.05 368.01 109.23 Z" />
<path fill="#070707" opacity="1.00" d=" M 406.48 147.18 C 407.66 146.28 408.39 146.50 408.66 147.84 C 407.47 148.73 406.75 148.51 406.48 147.18 Z" />
</g>
<g id="#dcdbd2ff">
<path fill="#dcdbd2" opacity="1.00" d=" M 145.45 110.20 C 147.13 109.89 148.81 109.62 150.50 109.35 C 150.43 110.44 150.30 112.62 150.23 113.71 C 151.20 112.32 152.10 110.89 153.00 109.45 C 155.19 109.91 157.07 110.76 156.47 113.42 C 157.25 112.66 158.04 111.90 158.84 111.15 C 160.51 112.79 163.02 114.37 162.84 117.05 C 162.45 119.73 160.95 122.07 159.61 124.36 C 159.88 123.51 160.42 121.79 160.68 120.94 C 160.29 121.34 159.52 122.13 159.13 122.53 C 156.21 123.53 153.15 124.01 150.08 124.13 C 153.84 123.08 157.63 121.97 160.94 119.83 C 155.97 113.15 144.26 113.14 139.25 119.79 C 142.60 122.48 146.79 123.36 150.97 123.75 C 146.97 124.25 142.99 123.53 139.46 121.55 L 140.28 123.21 C 141.79 128.44 139.60 133.65 138.36 138.67 C 138.37 138.20 138.40 137.25 138.41 136.77 C 138.62 135.29 138.96 133.83 139.33 132.38 C 140.08 129.65 140.73 126.77 140.12 123.94 C 139.43 121.51 137.74 119.49 137.17 117.02 C 137.27 113.86 140.43 112.29 142.56 110.54 C 141.48 115.09 144.96 111.85 145.45 110.20 Z" />
<path fill="#dcdbd2" opacity="1.00" d=" M 161.33 137.99 C 160.11 133.67 158.79 129.15 159.54 124.63 C 159.65 129.28 160.84 133.79 162.35 138.16 L 161.33 137.99 Z" />
<path fill="#dcdbd2" opacity="1.00" d=" M 117.34 137.70 C 118.05 137.78 119.47 137.94 120.18 138.03 C 123.63 139.13 126.84 140.83 130.08 142.42 C 132.97 143.91 135.89 145.37 138.84 146.73 C 143.57 148.68 149.19 148.26 153.25 151.86 C 154.05 148.87 156.82 147.33 159.80 148.25 C 161.33 145.95 162.24 143.32 162.10 140.52 L 162.41 141.54 C 162.71 142.64 163.01 143.73 163.29 144.84 C 164.54 145.61 165.80 146.38 167.07 147.15 C 167.01 148.65 166.95 150.15 166.89 151.65 C 165.90 152.16 164.90 152.68 163.91 153.19 C 163.41 153.03 162.42 152.69 161.92 152.52 C 160.68 153.77 159.53 155.18 157.93 155.98 C 156.52 155.53 155.19 154.88 153.85 154.29 C 151.38 156.38 148.26 157.85 144.96 156.99 C 140.73 156.32 140.51 150.89 137.25 148.84 C 134.71 147.25 131.87 146.26 129.13 145.10 C 124.87 143.28 120.35 141.37 117.34 137.70 Z" />
</g>
<g id="#ffffffff">
<path fill="#ffffff" opacity="1.00" d=" M 369.46 111.01 C 386.61 110.99 403.76 111.00 420.91 111.00 C 420.93 120.67 420.81 130.33 420.95 140.00 C 403.77 140.00 386.59 140.00 369.42 140.00 C 369.55 130.34 369.43 120.67 369.46 111.01 Z" />
<path fill="#ffffff" opacity="1.00" d=" M 368.01 141.91 C 386.14 142.04 404.27 142.11 422.40 141.87 C 426.01 147.65 429.30 153.66 433.39 159.13 C 408.06 158.88 382.72 158.99 357.39 159.07 C 360.90 153.33 364.53 147.66 368.01 141.91 M 368.36 144.95 C 367.44 146.37 366.56 147.82 365.73 149.30 C 363.33 150.32 366.77 152.20 367.97 150.98 L 368.94 150.43 C 369.67 150.51 371.11 150.68 371.83 150.76 L 371.87 150.90 C 383.51 150.90 395.18 151.31 406.80 150.75 L 407.24 150.85 C 407.92 150.81 409.30 150.73 409.98 150.69 L 410.95 150.59 C 411.64 150.67 413.03 150.82 413.72 150.90 L 414.11 150.80 C 418.15 150.85 422.56 151.85 426.37 150.15 L 425.12 150.06 C 423.94 147.74 422.60 145.51 421.21 143.31 L 420.98 144.09 C 420.53 144.07 419.65 144.02 419.21 144.00 C 415.54 143.12 411.61 143.63 407.92 144.11 C 407.49 144.04 406.63 143.90 406.20 143.83 L 405.02 144.24 L 404.18 143.66 C 403.63 143.80 402.53 144.07 401.99 144.20 L 400.88 143.93 C 400.44 143.94 399.57 143.97 399.14 143.98 L 397.85 143.96 C 397.42 143.95 396.55 143.94 396.11 143.94 L 394.82 144.27 C 394.08 144.21 392.60 144.09 391.86 144.02 L 391.72 144.71 L 391.60 146.07 C 391.53 145.71 391.40 145.00 391.34 144.64 L 391.05 143.86 C 390.61 143.92 389.73 144.06 389.29 144.13 L 387.86 143.94 C 387.43 143.95 386.56 143.95 386.12 143.95 L 384.98 144.15 C 384.43 144.04 383.32 143.82 382.76 143.71 L 381.96 144.34 L 380.83 143.85 C 380.40 143.90 379.53 143.99 379.10 144.03 L 377.93 144.12 C 377.50 144.04 376.64 143.89 376.21 143.82 L 374.99 144.21 C 374.24 144.20 372.75 144.19 372.00 144.18 L 371.03 144.13 C 369.67 143.12 368.78 143.39 368.36 144.95 M 385.01 152.02 L 384.85 153.05 C 391.48 152.83 398.13 152.80 404.76 152.98 C 405.20 154.30 405.65 155.62 406.09 156.95 C 398.35 156.56 390.40 157.96 382.81 156.12 C 382.87 156.59 382.97 157.54 383.02 158.01 C 391.16 158.02 399.29 158.04 407.43 157.99 C 406.83 156.08 406.23 154.17 405.65 152.27 C 398.77 151.92 391.89 152.27 385.01 152.02 M 384.29 154.41 C 384.75 154.86 384.75 154.86 384.29 154.41 Z" />
</g>
<g id="#f7f7f7ff">
<path fill="#f7f7f7" opacity="1.00" d=" M 543.21 112.85 C 544.63 113.20 546.06 113.58 547.49 113.96 C 543.03 130.07 538.17 146.05 533.60 162.12 C 532.14 161.80 530.69 161.49 529.25 161.17 C 533.75 145.02 538.27 128.87 543.21 112.85 Z" />
<path fill="#f7f7f7" opacity="1.00" d=" M 201.46 121.31 C 203.17 119.45 206.19 120.20 208.38 120.69 C 209.15 123.90 208.73 127.24 208.80 130.51 C 211.92 130.41 215.16 129.80 218.20 130.75 C 219.83 132.86 218.93 135.75 218.19 138.04 C 215.07 137.99 211.96 137.99 208.85 138.00 C 208.88 141.37 208.84 144.75 208.36 148.09 C 206.10 147.91 203.65 148.45 201.56 147.37 C 201.02 144.28 201.25 141.12 201.21 138.00 C 198.07 137.80 194.65 138.58 191.70 137.40 C 190.71 135.49 190.22 131.92 192.40 130.58 C 195.29 129.99 198.28 130.38 201.21 130.30 C 201.24 127.30 201.03 124.28 201.46 121.31 Z" />
<path fill="#f7f7f7" opacity="1.00" d=" M 320.15 121.05 C 322.15 119.75 325.09 119.85 327.16 120.96 C 327.63 124.12 327.43 127.34 327.44 130.53 C 330.65 130.39 333.98 129.81 337.11 130.80 C 337.84 132.98 338.18 135.69 336.88 137.72 C 333.74 138.21 330.56 137.98 327.40 138.05 C 327.47 141.35 327.46 144.65 327.18 147.94 C 324.91 147.67 321.72 148.98 320.08 146.96 C 319.66 144.00 319.88 141.00 319.86 138.02 C 316.68 137.94 313.43 138.31 310.31 137.56 C 309.05 135.53 309.92 132.93 309.86 130.68 C 313.14 130.19 316.47 130.25 319.78 130.36 C 319.84 127.25 319.63 124.12 320.15 121.05 Z" />
<path fill="#f7f7f7" opacity="1.00" d=" M 505.20 137.71 C 511.13 131.46 517.39 125.54 523.31 119.27 C 524.46 120.39 525.59 121.53 526.71 122.69 C 521.76 127.59 516.85 132.52 511.87 137.38 C 516.77 142.34 521.81 147.17 526.65 152.20 C 525.58 153.39 524.48 154.55 523.39 155.70 C 517.21 149.82 511.27 143.70 505.20 137.71 Z" />
<path fill="#f7f7f7" opacity="1.00" d=" M 550.26 122.71 C 550.87 121.34 552.14 120.41 553.11 119.31 C 559.45 124.96 565.18 131.26 571.12 137.31 C 570.47 139.32 568.46 140.55 567.12 142.12 C 562.45 146.54 558.38 151.70 553.14 155.45 C 551.90 154.57 550.94 153.40 549.95 152.28 C 554.74 147.29 559.87 142.63 564.65 137.62 C 560.06 132.45 554.66 128.03 550.26 122.71 Z" />
<path fill="#f7f7f7" opacity="1.00" d=" M 451.17 126.18 C 458.46 125.80 465.76 126.11 473.05 125.98 C 475.61 126.04 478.25 125.74 480.75 126.46 C 482.13 128.75 481.25 131.64 481.24 134.17 C 471.90 134.86 462.50 134.40 453.15 134.46 C 449.14 133.94 451.15 128.85 451.17 126.18 Z" />
<path fill="#f7f7f7" opacity="1.00" d=" M 451.48 137.50 C 452.68 136.42 454.55 136.90 456.04 136.65 C 463.67 136.51 471.33 136.24 478.96 136.79 C 482.90 137.04 481.56 142.32 480.95 144.87 C 472.00 145.72 462.92 145.09 453.93 145.20 C 449.77 145.78 450.25 139.83 451.48 137.50 Z" />
</g>
<g id="#cc2924ff">
<path fill="#cc2924" opacity="1.00" d=" M 139.25 119.79 C 144.26 113.14 155.97 113.15 160.94 119.83 C 157.63 121.97 153.84 123.08 150.08 124.13 C 153.15 124.01 156.21 123.53 159.13 122.53 C 154.80 128.84 145.53 127.71 140.28 123.21 L 139.46 121.55 C 142.99 123.53 146.97 124.25 150.97 123.75 C 146.79 123.36 142.60 122.48 139.25 119.79 Z" />
</g>
<g id="#ab1c17ff">
<path fill="#ab1c17" opacity="1.00" d=" M 159.13 122.53 C 159.52 122.13 160.29 121.34 160.68 120.94 C 160.42 121.79 159.88 123.51 159.61 124.36 L 159.54 124.63 C 158.79 129.15 160.11 133.67 161.33 137.99 C 161.59 138.83 161.85 139.67 162.10 140.52 C 162.24 143.32 161.33 145.95 159.80 148.25 C 156.82 147.33 154.05 148.87 153.25 151.86 C 149.19 148.26 143.57 148.68 138.84 146.73 C 138.59 146.33 138.07 145.52 137.81 145.11 C 138.27 143.45 138.34 141.72 138.12 140.02 C 138.18 139.69 138.30 139.01 138.36 138.67 C 139.60 133.65 141.79 128.44 140.28 123.21 C 145.53 127.71 154.80 128.84 159.13 122.53 Z" />
</g>
<g id="#484848ff">
<path fill="#484848" opacity="1.00" d=" M 118.30 127.27 C 122.38 125.62 127.24 123.28 131.53 125.47 C 133.85 128.09 136.05 130.90 139.33 132.38 C 138.96 133.83 138.62 135.29 138.41 136.77 C 135.59 138.59 132.82 140.48 130.08 142.42 C 126.84 140.83 123.63 139.13 120.18 138.03 C 117.59 136.91 114.31 136.82 112.32 134.67 C 111.61 131.06 115.60 128.75 118.30 127.27 Z" />
</g>
<g id="#948b82ff">
<path fill="#948b82" opacity="1.00" d=" M 130.08 142.42 C 132.82 140.48 135.59 138.59 138.41 136.77 C 138.40 137.25 138.37 138.20 138.36 138.67 C 138.30 139.01 138.18 139.69 138.12 140.02 C 136.42 141.29 136.27 143.64 137.81 145.11 C 138.07 145.52 138.59 146.33 138.84 146.73 C 135.89 145.37 132.97 143.91 130.08 142.42 Z" />
<path fill="#948b82" opacity="1.00" d=" M 161.33 137.99 L 162.35 138.16 C 167.97 138.90 172.70 145.51 170.16 150.99 C 167.12 157.43 159.44 159.31 152.99 160.08 C 145.47 160.53 137.05 159.13 131.53 153.59 C 129.17 151.40 129.22 148.06 129.13 145.10 C 131.87 146.26 134.71 147.25 137.25 148.84 C 140.51 150.89 140.73 156.32 144.96 156.99 C 148.26 157.85 151.38 156.38 153.85 154.29 C 155.19 154.88 156.52 155.53 157.93 155.98 C 159.53 155.18 160.68 153.77 161.92 152.52 C 162.42 152.69 163.41 153.03 163.91 153.19 C 164.90 152.68 165.90 152.16 166.89 151.65 C 166.95 150.15 167.01 148.65 167.07 147.15 C 165.80 146.38 164.54 145.61 163.29 144.84 C 163.01 143.73 162.71 142.64 162.41 141.54 L 162.10 140.52 C 161.85 139.67 161.59 138.83 161.33 137.99 Z" />
</g>
<g id="#d1d0c7ff">
<path fill="#d1d0c7" opacity="1.00" d=" M 137.81 145.11 C 136.27 143.64 136.42 141.29 138.12 140.02 C 138.34 141.72 138.27 143.45 137.81 145.11 Z" />
</g>
<g id="#505050ff">
<path fill="#505050" opacity="1.00" d=" M 371.03 144.13 L 372.00 144.18 C 372.71 145.35 374.21 145.28 374.99 144.21 L 376.21 143.82 C 376.52 145.30 377.09 145.40 377.93 144.12 L 379.10 144.03 C 379.83 145.38 380.41 145.32 380.83 143.85 L 381.96 144.34 C 382.81 145.34 384.27 145.29 384.98 144.15 L 386.12 143.95 C 386.71 145.37 387.29 145.36 387.86 143.94 L 389.29 144.13 C 389.80 144.26 390.83 144.51 391.34 144.64 C 391.40 145.00 391.53 145.71 391.60 146.07 L 391.72 144.71 C 392.80 145.10 393.83 144.95 394.82 144.27 L 396.11 143.94 C 396.68 145.36 397.26 145.37 397.85 143.96 L 399.14 143.98 C 399.76 145.38 400.34 145.36 400.88 143.93 L 401.99 144.20 C 402.76 145.29 404.21 145.29 405.02 144.24 L 406.20 143.83 C 406.51 145.31 407.08 145.40 407.92 144.11 C 411.61 143.63 415.54 143.12 419.21 144.00 C 419.80 145.42 420.39 145.45 420.98 144.09 L 421.21 143.31 C 422.60 145.51 423.94 147.74 425.12 150.06 C 421.44 149.85 417.68 149.76 414.11 150.80 L 413.72 150.90 C 413.77 149.21 411.65 149.73 410.95 150.59 L 409.98 150.69 C 409.34 149.74 407.25 149.16 407.24 150.85 L 406.80 150.75 C 400.97 149.31 394.90 150.27 388.97 150.00 C 383.27 150.20 377.44 149.36 371.87 150.90 L 371.83 150.76 C 371.71 149.19 369.71 149.65 368.94 150.43 L 367.97 150.98 C 367.45 150.11 366.70 149.55 365.73 149.30 C 366.56 147.82 367.44 146.37 368.36 144.95 C 369.40 145.33 370.29 145.06 371.03 144.13 M 371.27 147.13 C 371.50 150.45 374.21 145.51 371.27 147.13 M 374.38 147.87 C 375.61 148.72 376.34 148.48 376.58 147.16 C 375.35 146.31 374.61 146.54 374.38 147.87 M 378.30 147.08 C 378.31 150.40 381.35 145.66 378.30 147.08 M 381.42 147.22 C 381.67 148.54 382.40 148.75 383.61 147.85 C 383.35 146.53 382.62 146.32 381.42 147.22 M 385.34 147.83 C 386.53 148.72 387.26 148.50 387.53 147.17 C 386.33 146.27 385.60 146.49 385.34 147.83 M 389.29 147.10 C 389.37 150.43 392.30 145.61 389.29 147.10 M 392.39 147.21 C 392.66 148.53 393.40 148.74 394.60 147.83 C 394.32 146.51 393.59 146.30 392.39 147.21 M 396.27 147.13 C 396.49 150.44 399.22 145.52 396.27 147.13 M 399.41 147.18 C 399.62 148.50 400.35 148.73 401.58 147.86 C 401.36 146.53 400.64 146.30 399.41 147.18 M 403.26 147.15 C 403.61 150.46 406.14 145.44 403.26 147.15 M 406.48 147.18 C 406.75 148.51 407.47 148.73 408.66 147.84 C 408.39 146.50 407.66 146.28 406.48 147.18 M 410.17 147.36 C 410.75 148.14 411.70 148.41 413.02 148.17 C 413.54 148.32 417.13 147.95 415.25 147.07 C 413.59 146.82 411.71 146.58 410.17 147.36 M 417.29 147.09 C 417.55 150.40 420.23 145.47 417.29 147.09 M 421.41 147.39 C 421.65 147.63 421.65 147.63 421.41 147.39 Z" />
</g>
<g id="#050505ff">
<path fill="#050505" opacity="1.00" d=" M 372.00 144.18 C 372.75 144.19 374.24 144.20 374.99 144.21 C 374.21 145.28 372.71 145.35 372.00 144.18 Z" />
<path fill="#050505" opacity="1.00" d=" M 385.34 147.83 C 385.60 146.49 386.33 146.27 387.53 147.17 C 387.26 148.50 386.53 148.72 385.34 147.83 Z" />
</g>
<g id="#000000ff">
<path fill="#000000" opacity="1.00" d=" M 376.21 143.82 C 376.64 143.89 377.50 144.04 377.93 144.12 C 377.09 145.40 376.52 145.30 376.21 143.82 Z" />
<path fill="#000000" opacity="1.00" d=" M 379.10 144.03 C 379.53 143.99 380.40 143.90 380.83 143.85 C 380.41 145.32 379.83 145.38 379.10 144.03 Z" />
<path fill="#000000" opacity="1.00" d=" M 381.96 144.34 L 382.76 143.71 C 383.32 143.82 384.43 144.04 384.98 144.15 C 384.27 145.29 382.81 145.34 381.96 144.34 Z" />
<path fill="#000000" opacity="1.00" d=" M 386.12 143.95 C 386.56 143.95 387.43 143.95 387.86 143.94 C 387.29 145.36 386.71 145.37 386.12 143.95 Z" />
<path fill="#000000" opacity="1.00" d=" M 389.29 144.13 C 389.73 144.06 390.61 143.92 391.05 143.86 L 391.34 144.64 C 390.83 144.51 389.80 144.26 389.29 144.13 Z" />
<path fill="#000000" opacity="1.00" d=" M 391.86 144.02 C 392.60 144.09 394.08 144.21 394.82 144.27 C 393.83 144.95 392.80 145.10 391.72 144.71 L 391.86 144.02 Z" />
<path fill="#000000" opacity="1.00" d=" M 396.11 143.94 C 396.55 143.94 397.42 143.95 397.85 143.96 C 397.26 145.37 396.68 145.36 396.11 143.94 Z" />
<path fill="#000000" opacity="1.00" d=" M 399.14 143.98 C 399.57 143.97 400.44 143.94 400.88 143.93 C 400.34 145.36 399.76 145.38 399.14 143.98 Z" />
<path fill="#000000" opacity="1.00" d=" M 401.99 144.20 C 402.53 144.07 403.63 143.80 404.18 143.66 L 405.02 144.24 C 404.21 145.29 402.76 145.29 401.99 144.20 Z" />
<path fill="#000000" opacity="1.00" d=" M 406.20 143.83 C 406.63 143.90 407.49 144.04 407.92 144.11 C 407.08 145.40 406.51 145.31 406.20 143.83 Z" />
<path fill="#000000" opacity="1.00" d=" M 419.21 144.00 C 419.65 144.02 420.53 144.07 420.98 144.09 C 420.39 145.45 419.80 145.42 419.21 144.00 Z" />
<path fill="#000000" opacity="1.00" d=" M 371.27 147.13 C 374.21 145.51 371.50 150.45 371.27 147.13 Z" />
<path fill="#000000" opacity="1.00" d=" M 374.38 147.87 C 374.61 146.54 375.35 146.31 376.58 147.16 C 376.34 148.48 375.61 148.72 374.38 147.87 Z" />
<path fill="#000000" opacity="1.00" d=" M 378.30 147.08 C 381.35 145.66 378.31 150.40 378.30 147.08 Z" />
<path fill="#000000" opacity="1.00" d=" M 381.42 147.22 C 382.62 146.32 383.35 146.53 383.61 147.85 C 382.40 148.75 381.67 148.54 381.42 147.22 Z" />
<path fill="#000000" opacity="1.00" d=" M 389.29 147.10 C 392.30 145.61 389.37 150.43 389.29 147.10 Z" />
<path fill="#000000" opacity="1.00" d=" M 392.39 147.21 C 393.59 146.30 394.32 146.51 394.60 147.83 C 393.40 148.74 392.66 148.53 392.39 147.21 Z" />
<path fill="#000000" opacity="1.00" d=" M 396.27 147.13 C 399.22 145.52 396.49 150.44 396.27 147.13 Z" />
<path fill="#000000" opacity="1.00" d=" M 399.41 147.18 C 400.64 146.30 401.36 146.53 401.58 147.86 C 400.35 148.73 399.62 148.50 399.41 147.18 Z" />
<path fill="#000000" opacity="1.00" d=" M 403.26 147.15 C 406.14 145.44 403.61 150.46 403.26 147.15 Z" />
<path fill="#000000" opacity="1.00" d=" M 410.17 147.36 C 411.71 146.58 413.59 146.82 415.25 147.07 C 417.13 147.95 413.54 148.32 413.02 148.17 C 411.70 148.41 410.75 148.14 410.17 147.36 Z" />
<path fill="#000000" opacity="1.00" d=" M 417.29 147.09 C 420.23 145.47 417.55 150.40 417.29 147.09 Z" />
<path fill="#000000" opacity="1.00" d=" M 421.41 147.39 C 421.65 147.63 421.65 147.63 421.41 147.39 Z" />
<path fill="#000000" opacity="1.00" d=" M 368.94 150.43 C 369.71 149.65 371.71 149.19 371.83 150.76 C 371.11 150.68 369.67 150.51 368.94 150.43 Z" />
<path fill="#000000" opacity="1.00" d=" M 407.24 150.85 C 407.25 149.16 409.34 149.74 409.98 150.69 C 409.30 150.73 407.92 150.81 407.24 150.85 Z" />
<path fill="#000000" opacity="1.00" d=" M 410.95 150.59 C 411.65 149.73 413.77 149.21 413.72 150.90 C 413.03 150.82 411.64 150.67 410.95 150.59 Z" />
<path fill="#000000" opacity="1.00" d=" M 356.52 159.09 L 357.39 159.07 C 382.72 158.99 408.06 158.88 433.39 159.13 C 431.72 161.54 428.62 161.23 426.05 161.29 C 404.72 161.18 383.39 161.31 362.06 161.23 C 359.94 161.38 358.07 160.45 356.52 159.09 Z" />
</g>
<g id="#2c2c2cff">
<path fill="#2c2c2c" opacity="1.00" d=" M 367.97 150.98 C 366.77 152.20 363.33 150.32 365.73 149.30 C 366.70 149.55 367.45 150.11 367.97 150.98 Z" />
</g>
<g id="#030303ff">
<path fill="#030303" opacity="1.00" d=" M 371.87 150.90 C 377.44 149.36 383.27 150.20 388.97 150.00 C 394.90 150.27 400.97 149.31 406.80 150.75 C 395.18 151.31 383.51 150.90 371.87 150.90 Z" />
</g>
<g id="#191919ff">
<path fill="#191919" opacity="1.00" d=" M 414.11 150.80 C 417.68 149.76 421.44 149.85 425.12 150.06 L 426.37 150.15 C 422.56 151.85 418.15 150.85 414.11 150.80 Z" />
</g>
<g id="#d5d5d5ff">
<path fill="#d5d5d5" opacity="1.00" d=" M 385.01 152.02 C 391.89 152.27 398.77 151.92 405.65 152.27 C 406.23 154.17 406.83 156.08 407.43 157.99 C 399.29 158.04 391.16 158.02 383.02 158.01 C 382.97 157.54 382.87 156.59 382.81 156.12 C 390.40 157.96 398.35 156.56 406.09 156.95 C 405.65 155.62 405.20 154.30 404.76 152.98 C 398.13 152.80 391.48 152.83 384.85 153.05 L 385.01 152.02 Z" />
</g>
<g id="#bababaff">
<path fill="#bababa" opacity="1.00" d=" M 384.29 154.41 C 384.75 154.86 384.75 154.86 384.29 154.41 Z" />
</g>
</svg>
